# Blender v2.79 (sub 0) OBJ File: ''
# www.blender.org
mtllib navmesh.mtl
o Navmesh
v 33.410202 0.185276 -12.710197
v 33.710205 0.185276 -15.410202
v 29.510201 0.185276 -15.710205
v 29.210205 0.185276 -13.010201
v 25.010201 0.185276 -7.310204
v 22.310204 0.185276 -7.610199
v 22.010201 0.185276 -6.410202
v 21.410202 0.185276 -2.510201
v 21.110199 0.185276 1.989799
v 19.610199 0.185276 1.389801
v 19.610199 0.185276 -2.510201
v 18.110199 0.185276 -2.510201
v 17.810204 0.185276 1.989799
v 16.010201 0.185276 1.989799
v 16.010201 0.185276 -2.510201
v 14.510201 0.185276 -2.510201
v 14.210205 0.185276 1.989799
v 12.710197 0.185276 1.389801
v 12.710197 0.185276 -2.510201
v 11.210197 0.185276 -2.510201
v 10.910202 0.185276 1.989799
v 9.410202 0.185276 1.389801
v 9.410202 0.185276 -2.510201
v 7.910202 0.185276 -2.510201
v 7.610199 0.185276 1.989799
v 5.810204 0.185276 1.989799
v 5.810204 0.185276 -2.510201
v 4.310204 0.185276 -2.510201
v 4.010201 0.185276 1.989799
v 2.510201 0.185276 1.389801
v 2.510201 0.185276 -2.510201
v 1.010201 0.185276 -2.510201
v 0.710197 0.185276 1.989799
v -0.789803 0.185276 1.389801
v -0.789803 0.185276 -2.510201
v -2.289803 0.185276 -2.510201
v -2.589798 0.185276 1.989799
v -4.389801 0.185276 1.989799
v -4.389801 0.185276 -2.510201
v -5.889801 0.185276 -2.510201
v -5.889801 0.185276 1.989799
v -7.689796 0.185276 1.389801
v -7.689796 0.185276 -2.510201
v -9.189796 0.185276 -2.510201
v -9.489799 0.185276 1.989799
v -10.989799 0.185276 1.389801
v -10.989799 0.185276 -2.510201
v -12.489799 0.185276 -2.510201
v -12.789803 0.185276 1.989799
v -14.589798 0.185276 1.989799
v -14.589798 0.185276 -2.510201
v -16.089798 0.185276 -2.510201
v -16.089798 0.185276 1.989799
v -17.889801 0.185276 1.389801
v -17.889801 0.185276 -2.510201
v -19.389801 0.185276 -2.510201
v -19.689800 0.185276 1.989799
v -21.189800 0.185276 1.389801
v -21.189800 0.185276 -2.510201
v -22.689800 0.185276 -2.510201
v -22.989799 0.185276 1.989799
v -24.789799 0.185276 1.989799
v -24.789799 0.185276 -2.510201
v -26.289799 0.185276 -2.510201
v -26.289799 0.185276 1.989799
v -28.089802 0.185276 1.389801
v -28.089802 0.185276 -2.510201
v -29.289799 0.185276 -2.810204
v -29.589802 0.185276 -2.210197
v -31.389801 0.185276 -2.210197
v -31.689800 0.185276 -2.810204
v -32.589802 0.185276 -2.810204
v -32.889801 0.185276 -1.910202
v -37.389801 0.185276 -1.910202
v -37.689800 0.185276 -2.810204
v -37.089802 0.185276 -3.710197
v -34.389801 0.185276 -3.410202
v -34.089802 0.185276 -4.910202
v -36.789803 0.185276 -5.210197
v -38.589802 0.185276 -2.810204
v -38.589802 0.185276 -11.810204
v -34.989799 0.185276 -11.810204
v -34.989799 0.185276 -16.310204
v -35.289803 0.185276 -19.310204
v -30.489799 0.185276 -18.710205
v -30.189800 0.185276 -17.810204
v -29.289799 0.185276 -17.810204
v -28.989799 0.185276 -19.910202
v -22.389801 0.185276 -18.710205
v -21.789799 0.185276 -16.610199
v -19.989799 0.185276 -16.610199
v -19.689800 0.185276 -18.710205
v -16.089798 0.185276 -18.710205
v -13.389801 0.185276 -13.010201
v -2.889801 0.185276 -12.710197
v -1.989799 0.185276 -9.410202
v -0.489799 0.185276 -9.110199
v -0.189796 0.185276 -10.310204
v -0.189796 0.185276 -11.210197
v 2.510201 0.185276 -10.910202
v 2.810204 0.185276 -9.410202
v 4.310204 0.185276 -9.110199
v 4.610199 0.185276 -10.310204
v 10.910202 0.185276 -9.410202
v 12.110199 0.185276 -9.110199
v 12.410202 0.185276 -9.710197
v 14.510201 0.185276 -10.010201
v 17.210205 0.185276 -9.110199
v 17.510201 0.185276 -10.310204
v 16.910202 0.185276 -10.610199
v 16.610199 0.185276 -12.710197
v 17.510201 0.185276 -15.410202
v 16.010201 0.185276 -15.710205
v 15.710205 0.185276 -15.110199
v 14.210205 0.185276 -14.810204
v 11.210197 0.185276 -15.710205
v 13.010201 0.185276 -20.210205
v 16.010201 0.185276 -19.910202
v 16.910202 0.185276 -18.710205
v 17.810204 0.185276 -18.410202
v 18.110199 0.185276 -17.510201
v 20.810204 0.185276 -17.510201
v 21.110199 0.185276 -19.310204
v 20.510201 0.185276 -21.410202
v 17.210205 0.185276 -21.710205
v 16.310204 0.185276 -21.410202
v 15.410202 0.185276 -23.510201
v 13.610199 0.185276 -23.510201
v 10.910202 0.185276 -14.210205
v 11.510201 0.185276 -13.910202
v 11.810204 0.185276 -11.810204
v 3.110199 0.185276 -10.610199
v 2.810204 0.185276 -13.610199
v 2.810204 0.185276 -14.210205
v 4.310204 0.185276 -13.910202
v 4.610199 0.185276 -15.410202
v 3.110199 0.185276 -15.710205
v 3.110199 0.185276 -20.210205
v 6.410202 0.185276 -19.910202
v 6.710197 0.185276 -21.410202
v 6.110199 0.185276 -21.710205
v 6.410202 0.185276 -22.910202
v 5.810204 0.185276 -23.810204
v 4.010201 0.185276 -23.810204
v 0.110199 0.185276 -13.910202
v -1.689796 0.185276 -10.610199
v -2.589798 0.185276 -15.410202
v -1.989799 0.185276 -14.210205
v -0.489799 0.185276 -13.910202
v -0.189796 0.185276 -15.410202
v -1.689796 0.185276 -15.710205
v -13.089798 0.185276 -15.710205
v -16.089798 0.185276 -21.110199
v -14.289803 0.185276 -20.810204
v -11.289803 0.185276 -20.510201
v -10.989799 0.185276 -18.110199
v -7.689796 0.185276 -18.110199
v -7.389801 0.185276 -21.410202
v -8.289803 0.185276 -22.010201
v -7.989799 0.185276 -23.810204
v -7.389801 0.185276 -24.110199
v -7.389801 0.185276 -26.810204
v -10.989799 0.185276 -27.110199
v -12.789803 0.185276 -30.710205
v -10.089798 0.185276 -30.410202
v -9.789803 0.185276 -31.610199
v -12.489799 0.185276 -31.910202
v -11.289803 0.185276 -24.410202
v -14.289803 0.185276 -24.110199
v -16.689796 0.185276 -21.710205
v -18.489799 0.185276 -21.710205
v -18.789803 0.185276 -21.110199
v -22.089802 0.185276 -21.410202
v -34.989799 0.185276 -20.510201
v -36.789803 0.185276 -16.610199
v -35.889801 0.185276 -24.410202
v -32.889801 0.185276 -24.110199
v -32.589802 0.185276 -27.710205
v -35.889801 0.185276 -27.710205
v -34.989799 0.185276 -28.910202
v -32.289799 0.185276 -28.610199
v -31.989799 0.185276 -30.110199
v -34.689800 0.185276 -30.410202
v -38.589802 0.185276 -15.710205
v -39.189800 0.185276 -1.610199
v -39.189800 0.185276 2.289803
v -38.889801 0.185276 7.689796
v -41.289803 0.185276 7.689796
v -41.289803 0.185276 16.689796
v -82.389801 0.185276 20.889801
v -82.389801 0.185276 10.689796
v -82.389801 0.185276 0.189796
v -82.389801 0.185276 -10.010201
v -82.389801 0.185276 -20.210205
v -82.389801 0.185276 -30.410202
v -82.389801 0.185276 -40.910202
v -82.389801 0.185276 -51.110207
v -82.389801 0.185276 -61.610207
v -82.389801 0.185276 -71.810204
v -82.389801 0.185276 -82.310204
v -72.189804 0.185276 -82.310204
v -61.989799 0.185276 -82.310204
v -51.789803 0.185276 -82.310204
v -41.289803 0.185276 -82.310204
v -31.089802 0.185276 -82.310204
v -20.889801 0.185276 -82.310204
v -10.689796 0.185276 -82.310204
v -0.189796 0.185276 -82.310204
v 10.010201 0.185276 -82.310204
v 20.210205 0.185276 -82.310204
v 30.410202 0.185276 -82.310204
v 40.910202 0.185276 -82.310204
v 51.110207 0.185276 -82.310204
v 61.610207 0.185276 -82.310204
v 71.810204 0.185276 -82.310204
v 82.310204 0.185276 -82.310204
v 82.310204 0.185276 -71.810204
v 82.310204 0.185276 -61.610207
v 82.310204 0.185276 -51.110207
v 82.310204 0.185276 -40.910202
v 82.310204 0.185276 -30.410202
v 82.310204 0.185276 -20.210205
v 82.310204 0.185276 -10.010201
v 82.310204 0.185276 0.189796
v 82.310204 0.185276 10.689796
v 82.310204 0.185276 20.889801
v 82.310204 0.185276 31.089802
v 82.310204 0.185276 41.289803
v 82.310204 0.185276 51.789803
v 82.310204 0.185276 61.989799
v 82.310204 0.185276 72.189804
v 82.310204 0.185276 82.389801
v 71.810204 0.185276 82.389801
v 61.610207 0.185276 82.389801
v 51.110207 0.185276 82.389801
v 40.910202 0.185276 82.389801
v 30.410202 0.185276 82.389801
v 20.210205 0.185276 82.389801
v 10.010201 0.185276 82.389801
v -0.189796 0.185276 82.389801
v -10.689796 0.185276 82.389801
v -20.889801 0.185276 82.389801
v -31.089802 0.185276 82.389801
v -41.289803 0.185276 82.389801
v -51.789803 0.185276 82.389801
v -61.989799 0.185276 82.389801
v -72.189804 0.185276 82.389801
v -82.389801 0.185276 82.389801
v -82.389801 0.185276 72.189804
v -82.389801 0.185276 61.989799
v -82.389801 0.185276 51.789803
v -82.389801 0.185276 41.289803
v -82.389801 0.185276 31.089802
v -38.889801 0.185276 16.689796
v -37.989799 0.185276 2.589798
v -37.389801 0.185276 1.689796
v -33.189800 0.185276 1.689796
v -32.889801 0.185276 2.289803
v -29.889801 0.185276 1.689796
v -29.589802 0.185276 2.289803
v -28.689800 0.185276 2.289803
v -21.789799 0.185276 2.289803
v -18.489799 0.185276 2.289803
v -11.589798 0.185276 2.289803
v -8.289803 0.185276 2.289803
v -1.389801 0.185276 2.289803
v 1.910202 0.185276 2.289803
v 8.810204 0.185276 2.289803
v 12.110199 0.185276 2.289803
v 19.010201 0.185276 2.289803
v 22.310204 0.185276 2.289803
v 22.910202 0.185276 1.389801
v 24.410202 0.185276 1.989799
v 26.210205 0.185276 1.989799
v 28.010201 0.185276 1.989799
v 29.510201 0.185276 1.989799
v 31.310204 0.185276 1.989799
v 32.510201 0.185276 2.289803
v 32.810204 0.185276 1.689796
v 34.610199 0.185276 1.689796
v 34.910202 0.185276 2.289803
v 36.110199 0.185276 2.289803
v 36.410202 0.185276 1.689796
v 40.610199 0.185276 1.689796
v 41.810204 0.185276 3.489799
v 42.710205 0.185276 3.489799
v 43.010201 0.185276 1.689796
v 42.410202 0.185276 1.389801
v 42.410202 0.185276 -1.610199
v 41.810204 0.185276 -2.810204
v 40.910202 0.185276 -2.810204
v 40.610199 0.185276 -1.910202
v 36.410202 0.185276 -1.910202
v 36.110199 0.185276 -2.810204
v 33.110199 0.185276 -2.210197
v 32.810204 0.185276 -2.810204
v 31.910202 0.185276 -2.810204
v 31.310204 0.185276 -1.610199
v 29.810204 0.185276 -2.510201
v 28.010201 0.185276 -2.510201
v 26.210205 0.185276 -2.510201
v 24.710205 0.185276 -2.510201
v 22.910202 0.185276 -2.510201
v 24.710205 0.185276 -6.110199
v 37.610199 0.185276 -13.010201
v 42.110199 0.185276 -12.710197
v 42.410202 0.185276 -14.510201
v 41.810204 0.185276 -15.710205
v 37.910202 0.185276 -15.710205
vn 0.0000 1.0000 0.0000
usemtl None
s off
f 98//1 97//1 100//1
f 100//1 97//1 132//1
f 132//1 97//1 101//1
f 95//1 148//1 147//1
f 147//1 148//1 151//1
f 145//1 133//1 134//1
f 134//1 133//1 135//1
f 117//1 142//1 140//1
f 140//1 142//1 141//1
f 100//1 99//1 98//1
f 98//1 99//1 146//1
f 113//1 112//1 119//1
f 119//1 112//1 121//1
f 119//1 121//1 120//1
f 79//1 80//1 76//1
f 76//1 80//1 75//1
f 217//1 215//1 214//1
f 73//1 72//1 74//1
f 74//1 72//1 77//1
f 74//1 77//1 75//1
f 75//1 77//1 76//1
f 116//1 115//1 113//1
f 113//1 115//1 114//1
f 57//1 58//1 262//1
f 45//1 46//1 264//1
f 33//1 34//1 266//1
f 29//1 30//1 267//1
f 21//1 22//1 268//1
f 17//1 18//1 269//1
f 9//1 10//1 270//1
f 273//1 272//1 271//1
f 126//1 118//1 125//1
f 125//1 118//1 119//1
f 254//1 242//1 241//1
f 71//1 70//1 68//1
f 68//1 70//1 69//1
f 135//1 133//1 103//1
f 103//1 133//1 132//1
f 132//1 133//1 100//1
f 281//1 280//1 278//1
f 278//1 280//1 279//1
f 158//1 161//1 159//1
f 159//1 161//1 160//1
f 294//1 1//1 296//1
f 296//1 1//1 4//1
f 296//1 4//1 5//1
f 68//1 59//1 56//1
f 94//1 47//1 95//1
f 95//1 47//1 44//1
f 95//1 44//1 96//1
f 95//1 96//1 146//1
f 65//1 66//1 261//1
f 53//1 54//1 263//1
f 41//1 42//1 265//1
f 127//1 126//1 125//1
f 108//1 107//1 105//1
f 105//1 107//1 106//1
f 122//1 112//1 109//1
f 109//1 112//1 111//1
f 109//1 111//1 110//1
f 131//1 130//1 129//1
f 169//1 170//1 154//1
f 154//1 170//1 153//1
f 149//1 148//1 95//1
f 181//1 180//1 178//1
f 178//1 180//1 179//1
f 173//1 164//1 88//1
f 88//1 164//1 167//1
f 88//1 167//1 177//1
f 177//1 167//1 182//1
f 239//1 238//1 266//1
f 266//1 238//1 267//1
f 267//1 238//1 285//1
f 68//1 60//1 59//1
f 209//1 208//1 166//1
f 154//1 153//1 93//1
f 196//1 195//1 183//1
f 183//1 195//1 180//1
f 180//1 195//1 179//1
f 5//1 297//1 296//1
f 262//1 61//1 62//1
f 264//1 49//1 50//1
f 266//1 37//1 38//1
f 268//1 25//1 26//1
f 270//1 13//1 14//1
f 278//1 277//1 276//1
f 145//1 149//1 99//1
f 99//1 149//1 146//1
f 146//1 149//1 95//1
f 68//1 56//1 55//1
f 235//1 234//1 229//1
f 229//1 234//1 230//1
f 134//1 137//1 145//1
f 145//1 137//1 149//1
f 149//1 137//1 150//1
f 86//1 85//1 83//1
f 83//1 85//1 84//1
f 83//1 84//1 175//1
f 96//1 44//1 43//1
f 205//1 204//1 183//1
f 260//1 259//1 258//1
f 254//1 263//1 262//1
f 262//1 263//1 57//1
f 254//1 265//1 264//1
f 264//1 265//1 45//1
f 267//1 33//1 266//1
f 269//1 21//1 268//1
f 271//1 9//1 270//1
f 296//1 295//1 294//1
f 189//1 190//1 253//1
f 261//1 260//1 187//1
f 6//1 4//1 108//1
f 108//1 4//1 109//1
f 109//1 4//1 3//1
f 109//1 3//1 122//1
f 306//1 291//1 290//1
f 188//1 186//1 185//1
f 71//1 78//1 72//1
f 72//1 78//1 77//1
f 192//1 191//1 188//1
f 289//1 288//1 287//1
f 211//1 210//1 166//1
f 173//1 171//1 164//1
f 164//1 171//1 169//1
f 164//1 169//1 163//1
f 164//1 163//1 165//1
f 161//1 158//1 144//1
f 144//1 158//1 138//1
f 138//1 158//1 151//1
f 143//1 162//1 144//1
f 144//1 162//1 161//1
f 173//1 172//1 171//1
f 187//1 254//1 261//1
f 261//1 254//1 65//1
f 65//1 254//1 62//1
f 62//1 254//1 262//1
f 254//1 264//1 263//1
f 263//1 264//1 50//1
f 263//1 50//1 53//1
f 38//1 41//1 265//1
f 268//1 26//1 267//1
f 267//1 26//1 29//1
f 270//1 14//1 269//1
f 269//1 14//1 17//1
f 274//1 273//1 271//1
f 7//1 8//1 303//1
f 299//1 276//1 298//1
f 298//1 276//1 277//1
f 212//1 219//1 213//1
f 213//1 219//1 218//1
f 299//1 298//1 297//1
f 300//1 299//1 297//1
f 302//1 304//1 303//1
f 303//1 304//1 7//1
f 119//1 118//1 117//1
f 92//1 91//1 93//1
f 93//1 91//1 152//1
f 152//1 91//1 94//1
f 93//1 152//1 154//1
f 154//1 152//1 156//1
f 154//1 156//1 155//1
f 11//1 10//1 8//1
f 8//1 10//1 9//1
f 286//1 285//1 225//1
f 225//1 285//1 226//1
f 19//1 18//1 16//1
f 16//1 18//1 17//1
f 166//1 127//1 308//1
f 23//1 22//1 20//1
f 20//1 22//1 21//1
f 228//1 236//1 229//1
f 229//1 236//1 235//1
f 102//1 31//1 28//1
f 28//1 31//1 30//1
f 28//1 30//1 29//1
f 108//1 105//1 6//1
f 6//1 105//1 23//1
f 23//1 105//1 24//1
f 97//1 35//1 32//1
f 32//1 35//1 34//1
f 32//1 34//1 33//1
f 217//1 216//1 215//1
f 43//1 42//1 40//1
f 40//1 42//1 41//1
f 94//1 90//1 51//1
f 51//1 90//1 52//1
f 52//1 90//1 68//1
f 68//1 90//1 82//1
f 47//1 46//1 44//1
f 44//1 46//1 45//1
f 233//1 232//1 231//1
f 55//1 54//1 52//1
f 52//1 54//1 53//1
f 201//1 200//1 199//1
f 59//1 58//1 56//1
f 56//1 58//1 57//1
f 249//1 248//1 247//1
f 67//1 66//1 64//1
f 64//1 66//1 65//1
f 223//1 222//1 307//1
f 68//1 67//1 64//1
f 176//1 175//1 174//1
f 174//1 175//1 84//1
f 193//1 192//1 184//1
f 184//1 192//1 81//1
f 81//1 192//1 185//1
f 185//1 192//1 188//1
f 88//1 177//1 174//1
f 174//1 177//1 176//1
f 303//1 272//1 302//1
f 302//1 272//1 273//1
f 197//1 203//1 198//1
f 198//1 203//1 202//1
f 243//1 242//1 251//1
f 251//1 242//1 252//1
f 252//1 242//1 254//1
f 304//1 302//1 301//1
f 50//1 49//1 51//1
f 51//1 49//1 48//1
f 51//1 48//1 94//1
f 169//1 168//1 163//1
f 165//1 163//1 162//1
f 68//1 64//1 63//1
f 278//1 276//1 275//1
f 181//1 178//1 177//1
f 255//1 258//1 256//1
f 256//1 258//1 257//1
f 285//1 284//1 282//1
f 282//1 284//1 283//1
f 11//1 8//1 7//1
f 309//1 2//1 305//1
f 305//1 2//1 1//1
f 226//1 285//1 227//1
f 227//1 285//1 237//1
f 237//1 285//1 238//1
f 293//1 292//1 291//1
f 32//1 31//1 97//1
f 97//1 31//1 101//1
f 101//1 31//1 102//1
f 16//1 15//1 6//1
f 136//1 135//1 129//1
f 129//1 135//1 131//1
f 131//1 135//1 104//1
f 104//1 135//1 103//1
f 138//1 151//1 137//1
f 137//1 151//1 150//1
f 306//1 305//1 291//1
f 291//1 305//1 293//1
f 293//1 305//1 294//1
f 294//1 305//1 1//1
f 171//1 170//1 169//1
f 12//1 15//1 13//1
f 13//1 15//1 14//1
f 285//1 270//1 269//1
f 24//1 27//1 25//1
f 25//1 27//1 26//1
f 102//1 28//1 27//1
f 36//1 39//1 37//1
f 37//1 39//1 38//1
f 94//1 91//1 90//1
f 285//1 281//1 278//1
f 208//1 207//1 166//1
f 166//1 207//1 167//1
f 60//1 63//1 61//1
f 61//1 63//1 62//1
f 97//1 96//1 36//1
f 36//1 96//1 39//1
f 301//1 274//1 300//1
f 300//1 274//1 275//1
f 179//1 195//1 176//1
f 176//1 195//1 175//1
f 175//1 195//1 184//1
f 184//1 195//1 194//1
f 297//1 5//1 300//1
f 300//1 5//1 304//1
f 300//1 304//1 301//1
f 129//1 116//1 136//1
f 136//1 116//1 137//1
f 137//1 116//1 139//1
f 137//1 139//1 138//1
f 237//1 236//1 227//1
f 227//1 236//1 228//1
f 19//1 16//1 6//1
f 221//1 308//1 222//1
f 222//1 308//1 307//1
f 185//1 80//1 81//1
f 210//1 209//1 166//1
f 96//1 40//1 39//1
f 194//1 193//1 184//1
f 23//1 20//1 6//1
f 123//1 122//1 3//1
f 188//1 187//1 186//1
f 186//1 187//1 255//1
f 82//1 78//1 68//1
f 68//1 78//1 71//1
f 143//1 128//1 162//1
f 162//1 128//1 127//1
f 162//1 127//1 165//1
f 165//1 127//1 166//1
f 140//1 139//1 117//1
f 117//1 139//1 116//1
f 117//1 116//1 113//1
f 117//1 113//1 119//1
f 188//1 191//1 189//1
f 189//1 191//1 190//1
f 6//1 5//1 4//1
f 254//1 241//1 240//1
f 122//1 121//1 112//1
f 12//1 11//1 7//1
f 127//1 125//1 124//1
f 285//1 269//1 268//1
f 285//1 278//1 271//1
f 271//1 278//1 275//1
f 271//1 275//1 274//1
f 252//1 254//1 253//1
f 253//1 254//1 189//1
f 225//1 224//1 286//1
f 286//1 224//1 287//1
f 94//1 48//1 47//1
f 87//1 86//1 83//1
f 147//1 157//1 152//1
f 152//1 157//1 156//1
f 183//1 204//1 196//1
f 196//1 204//1 197//1
f 197//1 204//1 203//1
f 182//1 181//1 177//1
f 158//1 157//1 151//1
f 151//1 157//1 147//1
f 96//1 43//1 40//1
f 15//1 12//1 6//1
f 6//1 12//1 7//1
f 68//1 63//1 60//1
f 27//1 24//1 102//1
f 102//1 24//1 103//1
f 103//1 24//1 104//1
f 104//1 24//1 105//1
f 68//1 55//1 52//1
f 82//1 81//1 79//1
f 79//1 81//1 80//1
f 221//1 220//1 308//1
f 287//1 224//1 289//1
f 289//1 224//1 223//1
f 289//1 223//1 306//1
f 306//1 223//1 307//1
f 285//1 268//1 267//1
f 254//1 240//1 265//1
f 265//1 240//1 38//1
f 38//1 240//1 266//1
f 266//1 240//1 239//1
f 20//1 19//1 6//1
f 306//1 290//1 289//1
f 82//1 79//1 78//1
f 173//1 88//1 89//1
f 89//1 88//1 87//1
f 285//1 282//1 281//1
f 234//1 233//1 230//1
f 230//1 233//1 231//1
f 211//1 166//1 212//1
f 212//1 166//1 308//1
f 212//1 308//1 219//1
f 219//1 308//1 220//1
f 213//1 218//1 214//1
f 214//1 218//1 217//1
f 97//1 36//1 35//1
f 249//1 247//1 246//1
f 245//1 250//1 246//1
f 246//1 250//1 249//1
f 207//1 206//1 167//1
f 124//1 123//1 309//1
f 309//1 123//1 2//1
f 2//1 123//1 3//1
f 143//1 142//1 128//1
f 128//1 142//1 117//1
f 127//1 124//1 308//1
f 308//1 124//1 309//1
f 83//1 82//1 87//1
f 87//1 82//1 89//1
f 89//1 82//1 90//1
f 285//1 271//1 270//1
f 251//1 244//1 243//1
f 244//1 251//1 245//1
f 245//1 251//1 250//1
f 206//1 205//1 167//1
f 167//1 205//1 182//1
f 182//1 205//1 183//1
f 260//1 258//1 187//1
f 187//1 258//1 255//1
f 198//1 202//1 199//1
f 199//1 202//1 201//1
